Format                                   : MPEG-4
Format profile                           : Base Media / Version 2
Codec ID                                 : mp42
File size                                : 438 MiB
Duration                                 : 43mn 56s
Overall bit rate mode                    : Variable
Overall bit rate                         : 1 393 Kbps

Video
ID                                       : 1
Format                                   : AVC
Format/Info                              : Advanced Video Codec
Format profile                           : High@L3.0
Format settings, CABAC                   : Yes
Format settings, ReFrames                : 4 frames
Codec ID                                 : avc1
Codec ID/Info                            : Advanced Video Coding
Duration                                 : 43mn 56s
Bit rate mode                            : Variable
Bit rate                                 : 1 326 Kbps
Maximum bit rate                         : 2 359 Kbps
Width                                    : 720 pixels
Height                                   : 396 pixels
Display aspect ratio                     : 16:9
Frame rate mode                          : Constant
Frame rate                               : 29.970 fps
Standard                                 : NTSC
Color space                              : YUV
Chroma subsampling                       : 4:2:0
Bit depth                                : 8 bits
Scan type                                : Progressive
Bits/(Pixel*Frame)                       : 0.155
Stream size                              : 417 MiB (95%)
Language                                 : English

Audio
ID                                       : 2
Format                                   : AAC
Format/Info                              : Advanced Audio Codec
Format profile                           : LC
Codec ID                                 : 40
Duration                                 : 43mn 56s
Bit rate mode                            : Variable
Bit rate                                 : 61.9 Kbps
Maximum bit rate                         : 72.2 Kbps
Channel(s)                               : 2 channels
Channel positions                        : Front: L R
Sampling rate                            : 48.0 KHz
Compression mode                         : Lossy
Stream size                              : 19.4 MiB (4%)
Title                                    : MP3 2-ch 48KHz
Language                                 : English

Screens.  http://bayimg.com/aAMkbaAEP

Enjoy.